HIERARCHY
ROOT Hips
{
	OFFSET 0.000000 83.214638 0.000000
	CHANNELS 6 Xposition Yposition Zposition Xrotation Yrotation Zrotation
	JOINT Pelvis
	{
		OFFSET 0.000000 0.000000 0.000000
		CHANNELS 3 Xrotation Yrotation Zrotation
		JOINT LeftUpLeg
		{
			OFFSET 8.479700 -4.795502 -0.379100
			CHANNELS 3 Xrotation Yrotation Zrotation
			JOINT LeftLeg
			{
				OFFSET 0.024144 -32.555107 0.112900
				CHANNELS 3 Xrotation Yrotation Zrotation
				JOINT LeftFoot
				{
					OFFSET -0.024144 -32.638630 -3.012600
					CHANNELS 3 Xrotation Yrotation Zrotation
					JOINT LeftToeBase
					{
						OFFSET 0.970200 -13.225400 11.864200
						CHANNELS 3 Xrotation Yrotation Zrotation
						End Site
						{
							OFFSET 0.000000 12.319262 0.000000
						}
					}
					JOINT LFootTongue
					{
						OFFSET 1.142400 -1.059800 6.665200
						CHANNELS 3 Xrotation Yrotation Zrotation
						End Site
						{
							OFFSET 0.000000 12.319262 0.000000
						}
					}
				}
				JOINT LeftPantLeg
				{
					OFFSET 0.918482 -16.533964 -2.284700
					CHANNELS 3 Xrotation Yrotation Zrotation
					End Site
					{
						OFFSET 0.350399 24.744368 0.000000
					}
				}
			}
		}
		JOINT RightUpLeg
		{
			OFFSET -8.479700 -4.795502 -0.379100
			CHANNELS 3 Xrotation Yrotation Zrotation
			JOINT RightLeg
			{
				OFFSET -0.023144 -32.555092 0.112900
				CHANNELS 3 Xrotation Yrotation Zrotation
				JOINT RightFoot
				{
					OFFSET 0.023144 -32.638641 -3.012700
					CHANNELS 3 Xrotation Yrotation Zrotation
					JOINT RightToeBase
					{
						OFFSET -0.970200 -13.225400 11.864200
						CHANNELS 3 Xrotation Yrotation Zrotation
						End Site
						{
							OFFSET 0.000000 12.319244 0.000000
						}
					}
					JOINT RFootTongue
					{
						OFFSET -1.142200 -1.059800 6.665200
						CHANNELS 3 Xrotation Yrotation Zrotation
						End Site
						{
							OFFSET 0.000000 12.319243 0.000000
						}
					}
				}
				JOINT RightPantLeg
				{
					OFFSET -0.919482 -16.533978 -2.284800
					CHANNELS 3 Xrotation Yrotation Zrotation
					End Site
					{
						OFFSET -0.350400 24.744419 0.000000
					}
				}
			}
		}
	}
	JOINT Spine
	{
		OFFSET 0.000000 7.722000 1.166200
		CHANNELS 3 Xrotation Yrotation Zrotation
		JOINT Spine1
		{
			OFFSET 0.000000 12.024101 0.248800
			CHANNELS 3 Xrotation Yrotation Zrotation
			JOINT Spine2
			{
				OFFSET 0.000000 11.502998 -0.491200
				CHANNELS 3 Xrotation Yrotation Zrotation
				JOINT Neck
				{
					OFFSET 0.000000 18.430702 -3.123100
					CHANNELS 3 Xrotation Yrotation Zrotation
					JOINT Head
					{
						OFFSET 0.000000 9.051102 1.034000
						CHANNELS 3 Xrotation Yrotation Zrotation
						JOINT HairB
						{
							OFFSET 0.208400 24.786102 24.822300
							CHANNELS 3 Xrotation Yrotation Zrotation
							End Site
							{
								OFFSET 0.000000 32.263779 0.000000
							}
						}
						JOINT HairA
						{
							OFFSET -7.081100 24.428299 23.196600
							CHANNELS 3 Xrotation Yrotation Zrotation
							End Site
							{
								OFFSET 0.000000 32.263779 0.000000
							}
						}
						JOINT Hat
						{
							OFFSET 16.728800 15.048294 -15.439601
							CHANNELS 3 Xrotation Yrotation Zrotation
							End Site
							{
								OFFSET 0.000000 32.263779 0.000000
							}
						}
					}
				}
				JOINT LeftShoulder
				{
					OFFSET 6.197800 13.665199 -4.064700
					CHANNELS 3 Xrotation Yrotation Zrotation
					JOINT LeftArm
					{
						OFFSET 7.778100 -0.187103 -1.709300
						CHANNELS 3 Xrotation Yrotation Zrotation
						JOINT LeftForeArm
						{
							OFFSET 22.049376 0.000000 0.000000
							CHANNELS 3 Xrotation Yrotation Zrotation
							JOINT LeftHand
							{
								OFFSET 23.009392 0.000000 0.000000
								CHANNELS 3 Xrotation Yrotation Zrotation
								JOINT LeftHandThumb1
								{
									OFFSET 3.507191 -2.063065 3.133727
									CHANNELS 3 Xrotation Yrotation Zrotation
									JOINT LeftHandThumb2
									{
										OFFSET 3.101337 -1.790558 1.790558
										CHANNELS 3 Xrotation Yrotation Zrotation
										JOINT LeftHandThumb3
										{
											OFFSET 3.058640 -1.765907 1.765906
											CHANNELS 3 Xrotation Yrotation Zrotation
											End Site
											{
												OFFSET -0.415260 3.926476 -0.049563
											}
										}
									}
								}
								JOINT LeftHandIndex1
								{
									OFFSET 11.334419 -0.901459 3.706815
									CHANNELS 3 Xrotation Yrotation Zrotation
									JOINT LeftHandIndex2
									{
										OFFSET 3.283112 0.000000 0.000000
										CHANNELS 3 Xrotation Yrotation Zrotation
										JOINT LeftHandIndex3
										{
											OFFSET 3.323853 0.000000 0.000000
											CHANNELS 3 Xrotation Yrotation Zrotation
											End Site
											{
												OFFSET -1.135597 3.097809 0.402452
											}
										}
									}
								}
								JOINT LeftHandMiddle1
								{
									OFFSET 11.335861 0.000000 0.000000
									CHANNELS 3 Xrotation Yrotation Zrotation
									JOINT LeftHandMiddle2
									{
										OFFSET 3.410492 0.000000 0.000000
										CHANNELS 3 Xrotation Yrotation Zrotation
										JOINT LeftHandMiddle3
										{
											OFFSET 3.312172 0.000000 0.000000
											CHANNELS 3 Xrotation Yrotation Zrotation
											End Site
											{
												OFFSET -1.150200 3.080154 0.400270
											}
										}
									}
								}
								JOINT LeftHandRing1
								{
									OFFSET 11.514786 -0.013176 -3.003090
									CHANNELS 3 Xrotation Yrotation Zrotation
									JOINT LeftHandRing2
									{
										OFFSET 3.053307 0.000000 0.000000
										CHANNELS 3 Xrotation Yrotation Zrotation
										JOINT LeftHandRing3
										{
											OFFSET 3.295807 0.000000 0.000000
											CHANNELS 3 Xrotation Yrotation Zrotation
											End Site
											{
												OFFSET -1.281006 3.013344 0.375733
											}
										}
									}
								}
								JOINT LeftHandPinky1
								{
									OFFSET 10.518692 -0.960396 -5.730441
									CHANNELS 3 Xrotation Yrotation Zrotation
									JOINT LeftHandPinky2
									{
										OFFSET 2.861649 0.000000 0.000000
										CHANNELS 3 Xrotation Yrotation Zrotation
										JOINT LeftHandPinky3
										{
											OFFSET 2.863380 0.000000 0.000000
											CHANNELS 3 Xrotation Yrotation Zrotation
											End Site
											{
												OFFSET -0.843597 2.711159 0.369971
											}
										}
									}
								}
							}
							JOINT LSleeve
							{
								OFFSET 6.676277 -0.344902 -1.011730
								CHANNELS 3 Xrotation Yrotation Zrotation
								End Site
								{
									OFFSET 0.000000 14.885353 0.000000
								}
							}
						}
					}
				}
				JOINT RightShoulder
				{
					OFFSET -6.197800 13.665199 -4.064700
					CHANNELS 3 Xrotation Yrotation Zrotation
					JOINT RightArm
					{
						OFFSET -7.778100 -0.187103 -1.709300
						CHANNELS 3 Xrotation Yrotation Zrotation
						JOINT RightForeArm
						{
							OFFSET -22.049376 0.000000 0.000000
							CHANNELS 3 Xrotation Yrotation Zrotation
							JOINT RightHand
							{
								OFFSET -23.009392 0.000000 0.000000
								CHANNELS 3 Xrotation Yrotation Zrotation
								JOINT RightHandThumb1
								{
									OFFSET -3.507191 -2.063065 3.133727
									CHANNELS 3 Xrotation Yrotation Zrotation
									JOINT RightHandThumb2
									{
										OFFSET -3.101337 -1.790558 1.790558
										CHANNELS 3 Xrotation Yrotation Zrotation
										JOINT RightHandThumb3
										{
											OFFSET -3.058640 -1.765907 1.765906
											CHANNELS 3 Xrotation Yrotation Zrotation
											End Site
											{
												OFFSET 0.415260 3.926476 -0.049563
											}
										}
									}
								}
								JOINT RightHandIndex1
								{
									OFFSET -11.334419 -0.901459 3.706815
									CHANNELS 3 Xrotation Yrotation Zrotation
									JOINT RightHandIndex2
									{
										OFFSET -3.283112 0.000000 0.000000
										CHANNELS 3 Xrotation Yrotation Zrotation
										JOINT RightHandIndex3
										{
											OFFSET -3.323853 0.000000 0.000000
											CHANNELS 3 Xrotation Yrotation Zrotation
											End Site
											{
												OFFSET 1.135597 3.097809 0.402452
											}
										}
									}
								}
								JOINT RightHandMiddle1
								{
									OFFSET -11.335861 0.000000 0.000000
									CHANNELS 3 Xrotation Yrotation Zrotation
									JOINT RightHandMiddle2
									{
										OFFSET -3.410492 0.000000 0.000000
										CHANNELS 3 Xrotation Yrotation Zrotation
										JOINT RightHandMiddle3
										{
											OFFSET -3.312172 0.000000 0.000000
											CHANNELS 3 Xrotation Yrotation Zrotation
											End Site
											{
												OFFSET 1.150200 3.080154 0.400270
											}
										}
									}
								}
								JOINT RightHandRing1
								{
									OFFSET -11.514786 -0.013176 -3.003090
									CHANNELS 3 Xrotation Yrotation Zrotation
									JOINT RightHandRing2
									{
										OFFSET -3.053307 0.000000 0.000000
										CHANNELS 3 Xrotation Yrotation Zrotation
										JOINT RightHandRing3
										{
											OFFSET -3.295807 0.000000 0.000000
											CHANNELS 3 Xrotation Yrotation Zrotation
											End Site
											{
												OFFSET 1.281006 3.013344 0.375733
											}
										}
									}
								}
								JOINT RightHandPinky1
								{
									OFFSET -10.518692 -0.960396 -5.730441
									CHANNELS 3 Xrotation Yrotation Zrotation
									JOINT RightHandPinky2
									{
										OFFSET -2.861649 0.000000 0.000000
										CHANNELS 3 Xrotation Yrotation Zrotation
										JOINT RightHandPinky3
										{
											OFFSET -2.863380 0.000000 0.000000
											CHANNELS 3 Xrotation Yrotation Zrotation
											End Site
											{
												OFFSET 0.843597 2.711159 0.369971
											}
										}
									}
								}
							}
							JOINT RSleeve
							{
								OFFSET -6.676277 -0.344902 -1.011730
								CHANNELS 3 Xrotation Yrotation Zrotation
								End Site
								{
									OFFSET 0.000000 14.885353 0.000000
								}
							}
						}
					}
				}
				JOINT Backpack
				{
					OFFSET 0.000000 -2.471497 36.677502
					CHANNELS 3 Xrotation Yrotation Zrotation
					End Site
					{
						OFFSET 0.000000 20.427315 0.000000
					}
				}
				JOINT Hood
				{
					OFFSET 0.000000 18.754097 -10.431000
					CHANNELS 3 Xrotation Yrotation Zrotation
					JOINT Hood1
					{
						OFFSET 0.000000 -5.011002 -7.685901
						CHANNELS 3 Xrotation Yrotation Zrotation
						End Site
						{
							OFFSET 0.000000 9.175140 0.000000
						}
					}
				}
				JOINT LHoodieString
				{
					OFFSET 5.250500 16.397697 3.089900
					CHANNELS 3 Xrotation Yrotation Zrotation
					JOINT LHoodieString1
					{
						OFFSET 0.257700 -6.364304 3.694600
						CHANNELS 3 Xrotation Yrotation Zrotation
						JOINT LHoodieString2
						{
							OFFSET 0.000000 -9.643799 2.679100
							CHANNELS 3 Xrotation Yrotation Zrotation
							End Site
							{
								OFFSET 0.000000 10.009018 0.000000
							}
						}
					}
				}
				JOINT RHoodieString
				{
					OFFSET -5.250500 16.397697 3.089900
					CHANNELS 3 Xrotation Yrotation Zrotation
					JOINT RHoodieString1
					{
						OFFSET -0.257700 -6.364304 3.694600
						CHANNELS 3 Xrotation Yrotation Zrotation
						JOINT RHoodieString2
						{
							OFFSET 0.000000 -9.643799 2.679100
							CHANNELS 3 Xrotation Yrotation Zrotation
							End Site
							{
								OFFSET 0.000000 10.009018 0.000000
							}
						}
					}
				}
			}
			JOINT LBackpack_Strap
			{
				OFFSET 15.223200 -7.719803 -6.610900
				CHANNELS 3 Xrotation Yrotation Zrotation
				End Site
				{
					OFFSET 0.000000 16.040596 0.000000
				}
			}
			JOINT RBackpack_Strap
			{
				OFFSET -15.223000 -7.719803 -6.610900
				CHANNELS 3 Xrotation Yrotation Zrotation
				End Site
				{
					OFFSET 0.000000 16.040596 0.000000
				}
			}
		}
	}
	JOINT BoyFacialAnim_Joint
	{
		OFFSET 1.000000 -82.208099 -1.550900
		CHANNELS 3 Xrotation Yrotation Zrotation
		End Site
		{
			OFFSET 0.000000 30.012791 0.000000
		}
	}
}
MOTION
Frames: 4
Frame Time: 0.033333
-0.104884 77.222534 -0.095358 -6.221189 -43.068400 -3.691627 -0.000000 0.000001 0.000000 -27.709753 5.992780 13.115068 34.194287 -14.848925 -0.280554 -4.336438 0.685004 -7.664178 0.000000 0.000002 -0.000000 0.000000 0.000002 0.000000 -0.000001 0.000003 0.000001 -3.719411 -13.552043 -15.323044 32.985330 -12.108487 -0.820503 -20.533569 -4.365616 18.281401 -0.000000 -0.000001 0.000000 -0.000000 -0.000001 0.000000 -0.000000 0.000002 -0.000001 5.951111 4.631571 -1.322124 12.075304 8.999708 -3.230529 12.075305 8.999711 -3.230530 -4.430860 -1.687726 0.070757 -6.598562 19.852901 -0.400433 0.000001 0.000000 -0.000000 0.000001 0.000000 -0.000000 0.000001 0.000000 -0.000000 1.375713 -0.825196 -7.871260 -14.426054 1.842451 -63.338270 9.616497 -48.180523 5.780892 15.681455 1.222991 19.029537 9.213190 4.840269 -5.553282 -0.204955 0.311983 0.828226 -0.000000 0.000002 0.000001 -0.902734 -6.991762 -3.917193 0.029568 0.791328 -16.529597 -0.000001 0.000000 -0.000002 1.945113 9.672733 -14.648032 -0.460970 -1.576680 -21.992016 0.000004 0.000001 -0.000001 2.601774 14.890333 -31.453175 -0.580451 -2.718136 -32.122998 0.000001 0.000001 -0.000002 4.167050 18.490236 -35.095264 -0.708310 -5.790461 -39.484552 0.000000 -0.000000 0.000003 0.000002 -0.000002 0.000001 1.418462 9.560816 9.682180 1.357629 -23.643140 60.728455 -5.745670 41.628449 7.874306 6.713331 12.452297 11.244843 -8.837713 -4.897593 -0.272562 7.887070 -19.152858 -2.856420 0.000001 0.000001 -0.000003 -1.086009 -1.209133 4.606789 0.141399 -1.113172 16.967563 -0.000001 0.000000 0.000002 -0.666333 -2.892107 12.885622 -0.669181 1.827976 30.767878 -0.000000 0.000002 -0.000003 2.416310 -7.386441 21.966961 -0.999627 3.777224 37.620463 -0.000001 -0.000000 -0.000001 3.470679 -10.032587 24.547092 -1.467950 7.882914 41.282100 -0.000002 -0.000002 -0.000005 -0.000001 0.000000 0.000001 0.000000 0.000002 -0.000001 0.000000 0.000002 -0.000001 0.000000 0.000002 -0.000001 0.000000 0.000002 -0.000001 0.000000 0.000002 -0.000000 0.000000 0.000001 0.000000 0.000000 0.000002 -0.000001 0.000000 0.000002 -0.000000 0.000000 0.000001 0.000000 0.000000 0.000001 0.000000 0.000000 0.000001 0.000000 -0.000000 0.000001 0.000000 
-0.258328 77.263031 0.131963 -6.086969 -43.032811 -4.015540 -0.000000 0.000003 0.000000 -27.324986 5.711052 13.933702 33.960117 -14.110948 -0.201474 -4.092904 0.706247 -8.143554 -0.000000 -0.000000 0.000000 -0.000000 -0.000000 0.000000 -0.000000 0.000002 0.000001 -4.368504 -13.685393 -15.656786 32.702406 -9.020093 -0.425641 -20.500905 -4.052700 17.150759 -0.000000 0.000001 -0.000000 -0.000000 0.000001 -0.000000 0.000001 0.000003 0.000002 5.833964 4.645125 -1.245100 11.836562 9.037621 -3.083977 11.836556 9.037623 -3.083975 -4.303096 -1.272966 0.206310 -6.271931 20.437792 -0.377164 0.000000 -0.000000 0.000000 0.000000 -0.000000 0.000000 0.000000 -0.000000 0.000000 1.392432 -0.696071 -7.877838 -14.260101 2.394325 -63.277113 9.865055 -47.524897 5.927940 16.172821 0.915192 18.795439 9.163594 4.814099 -5.499029 -0.335370 0.032569 0.783671 0.000002 -0.000004 0.000002 -0.902012 -6.980958 -3.808423 0.033404 0.804251 -16.418993 -0.000002 0.000003 -0.000005 1.947844 9.683073 -14.539803 -0.456418 -1.565439 -21.881027 0.000001 -0.000001 -0.000002 2.605893 14.896807 -31.345261 -0.576857 -2.712398 -32.011556 0.000001 -0.000001 -0.000004 4.170594 18.495007 -34.987326 -0.706807 -5.788622 -39.372943 -0.000004 -0.000001 -0.000002 -0.000003 -0.000002 -0.000000 1.410892 9.461481 9.792741 1.220043 -24.270703 60.532920 -6.660713 41.858398 8.043851 6.225252 12.322343 11.673292 -8.895852 -4.903139 -0.383700 7.904842 -19.192473 -2.856820 -0.000001 0.000001 -0.000002 -1.085506 -1.215485 4.525239 0.142130 -1.115556 16.942598 -0.000000 -0.000001 0.000002 -0.663648 -2.903891 12.731597 -0.660555 1.813452 30.578996 -0.000000 -0.000002 -0.000001 2.423631 -7.404556 21.763276 -0.989690 3.764329 37.431113 0.000001 -0.000002 0.000003 3.481043 -10.055065 24.322720 -1.458319 7.872012 41.091931 -0.000000 0.000000 0.000000 -0.000002 0.000000 -0.000002 0.000001 0.000000 -0.000001 0.000001 0.000000 -0.000001 0.000001 0.000000 -0.000001 0.000001 0.000000 -0.000001 0.000001 0.000000 -0.000001 0.000001 -0.000001 0.000001 0.000001 0.000000 -0.000001 0.000001 0.000000 -0.000001 0.000001 -0.000001 0.000001 0.000000 0.000000 0.000000 0.000000 0.000000 0.000000 -0.000000 0.000003 0.000000 
-0.258328 77.263031 0.131963 -6.086969 -43.032811 -4.015540 -0.000000 0.000003 0.000000 -27.324986 5.711052 13.933702 33.960117 -14.110948 -0.201474 -4.092904 0.706247 -8.143554 -0.000000 -0.000000 0.000000 -0.000000 -0.000000 0.000000 -0.000000 0.000002 0.000001 -4.368504 -13.685393 -15.656786 32.702406 -9.020093 -0.425641 -20.500905 -4.052700 17.150759 -0.000000 0.000001 -0.000000 -0.000000 0.000001 -0.000000 0.000001 0.000003 0.000002 5.833964 4.645125 -1.245100 11.836562 9.037621 -3.083977 11.836556 9.037623 -3.083975 -4.303096 -1.272966 0.206310 -6.271931 20.437792 -0.377164 0.000000 -0.000000 0.000000 0.000000 -0.000000 0.000000 0.000000 -0.000000 0.000000 1.392432 -0.696071 -7.877838 -14.260101 2.394325 -63.277113 9.865055 -47.524897 5.927940 16.172821 0.915192 18.795439 9.163594 4.814099 -5.499029 -0.335370 0.032569 0.783671 0.000002 -0.000004 0.000002 -0.902012 -6.980958 -3.808423 0.033404 0.804251 -16.418993 -0.000002 0.000003 -0.000005 1.947844 9.683073 -14.539803 -0.456418 -1.565439 -21.881027 0.000001 -0.000001 -0.000002 2.605893 14.896807 -31.345261 -0.576857 -2.712398 -32.011556 0.000001 -0.000001 -0.000004 4.170594 18.495007 -34.987326 -0.706807 -5.788622 -39.372943 -0.000004 -0.000001 -0.000002 -0.000003 -0.000002 -0.000000 1.410892 9.461481 9.792741 1.220043 -24.270703 60.532920 -6.660713 41.858398 8.043851 6.225252 12.322343 11.673292 -8.895852 -4.903139 -0.383700 7.904842 -19.192473 -2.856820 -0.000001 0.000001 -0.000002 -1.085506 -1.215485 4.525239 0.142130 -1.115556 16.942598 -0.000000 -0.000001 0.000002 -0.663648 -2.903891 12.731597 -0.660555 1.813452 30.578996 -0.000000 -0.000002 -0.000001 2.423631 -7.404556 21.763276 -0.989690 3.764329 37.431113 0.000001 -0.000002 0.000003 3.481043 -10.055065 24.322720 -1.458319 7.872012 41.091931 -0.000000 0.000000 0.000000 -0.000002 0.000000 -0.000002 0.000001 0.000000 -0.000001 0.000001 0.000000 -0.000001 0.000001 0.000000 -0.000001 0.000001 0.000000 -0.000001 0.000001 0.000000 -0.000001 0.000001 -0.000001 0.000001 0.000001 0.000000 -0.000001 0.000001 0.000000 -0.000001 0.000001 -0.000001 0.000001 0.000000 0.000000 0.000000 0.000000 0.000000 0.000000 -0.000000 0.000003 0.000000 
-0.258328 77.263031 0.131963 -6.086969 -43.032811 -4.015540 -0.000000 0.000003 0.000000 -27.324986 5.711052 13.933702 33.960117 -14.110948 -0.201474 -4.092904 0.706247 -8.143554 -0.000000 -0.000000 0.000000 -0.000000 -0.000000 0.000000 -0.000000 0.000002 0.000001 -4.368504 -13.685393 -15.656786 32.702406 -9.020093 -0.425641 -20.500905 -4.052700 17.150759 -0.000000 0.000001 -0.000000 -0.000000 0.000001 -0.000000 0.000001 0.000003 0.000002 5.833964 4.645125 -1.245100 11.836562 9.037621 -3.083977 11.836556 9.037623 -3.083975 -4.303096 -1.272966 0.206310 -6.271931 20.437792 -0.377164 0.000000 -0.000000 0.000000 0.000000 -0.000000 0.000000 0.000000 -0.000000 0.000000 1.392432 -0.696071 -7.877838 -14.260101 2.394325 -63.277113 9.865055 -47.524897 5.927940 16.172821 0.915192 18.795439 9.163594 4.814099 -5.499029 -0.335370 0.032569 0.783671 0.000002 -0.000004 0.000002 -0.902012 -6.980958 -3.808423 0.033404 0.804251 -16.418993 -0.000002 0.000003 -0.000005 1.947844 9.683073 -14.539803 -0.456418 -1.565439 -21.881027 0.000001 -0.000001 -0.000002 2.605893 14.896807 -31.345261 -0.576857 -2.712398 -32.011556 0.000001 -0.000001 -0.000004 4.170594 18.495007 -34.987326 -0.706807 -5.788622 -39.372943 -0.000004 -0.000001 -0.000002 -0.000003 -0.000002 -0.000000 1.410892 9.461481 9.792741 1.220043 -24.270703 60.532920 -6.660713 41.858398 8.043851 6.225252 12.322343 11.673292 -8.895852 -4.903139 -0.383700 7.904842 -19.192473 -2.856820 -0.000001 0.000001 -0.000002 -1.085506 -1.215485 4.525239 0.142130 -1.115556 16.942598 -0.000000 -0.000001 0.000002 -0.663648 -2.903891 12.731597 -0.660555 1.813452 30.578996 -0.000000 -0.000002 -0.000001 2.423631 -7.404556 21.763276 -0.989690 3.764329 37.431113 0.000001 -0.000002 0.000003 3.481043 -10.055065 24.322720 -1.458319 7.872012 41.091931 -0.000000 0.000000 0.000000 -0.000002 0.000000 -0.000002 0.000001 0.000000 -0.000001 0.000001 0.000000 -0.000001 0.000001 0.000000 -0.000001 0.000001 0.000000 -0.000001 0.000001 0.000000 -0.000001 0.000001 -0.000001 0.000001 0.000001 0.000000 -0.000001 0.000001 0.000000 -0.000001 0.000001 -0.000001 0.000001 0.000000 0.000000 0.000000 0.000000 0.000000 0.000000 -0.000000 0.000003 0.000000 
